<?xml version="1.0" encoding="UTF-8" standalone="no"?>
<svg
   xmlns:dc="http://purl.org/dc/elements/1.1/"
   xmlns:cc="http://creativecommons.org/ns#"
   xmlns:rdf="http://www.w3.org/1999/02/22-rdf-syntax-ns#"
   xmlns:svg="http://www.w3.org/2000/svg"
   xmlns="http://www.w3.org/2000/svg"
   xmlns:sodipodi="http://sodipodi.sourceforge.net/DTD/sodipodi-0.dtd"
   xmlns:inkscape="http://www.inkscape.org/namespaces/inkscape"
   version="1.1"
   id="svg2"
   xml:space="preserve"
   width="793.70135"
   height="793.70135"
   viewBox="0 0 793.70135 793.70135"
   sodipodi:docname="Portrait.ai"><metadata
     id="metadata8"><rdf:RDF><cc:Work
         rdf:about=""><dc:format>image/svg+xml</dc:format><dc:type
           rdf:resource="http://purl.org/dc/dcmitype/StillImage" /></cc:Work></rdf:RDF></metadata><defs
     id="defs6"><clipPath
       clipPathUnits="userSpaceOnUse"
       id="clipPath20"><path
         d="M 0,595.276 H 595.276 V 0 H 0 Z"
         id="path18" /></clipPath><clipPath
       clipPathUnits="userSpaceOnUse"
       id="clipPath92"><path
         d="M 224.096,259.457 H 365.118 V 243.815 H 224.096 Z"
         id="path90" /></clipPath><clipPath
       clipPathUnits="userSpaceOnUse"
       id="clipPath160"><path
         d="M 142.508,355.041 H 440.976 V 125.037 H 142.508 Z"
         id="path158" /></clipPath><clipPath
       clipPathUnits="userSpaceOnUse"
       id="clipPath232"><path
         d="m 191.204,387.661 h 72.614 V 344.63 h -72.614 z"
         id="path230" /></clipPath><clipPath
       clipPathUnits="userSpaceOnUse"
       id="clipPath256"><path
         d="M 152.898,395.882 H 445.074 V 282.568 H 152.898 Z"
         id="path254" /></clipPath><clipPath
       clipPathUnits="userSpaceOnUse"
       id="clipPath284"><path
         d="m 263.498,204.374 h 62.197 v -13.787 h -62.197 z"
         id="path282" /></clipPath><clipPath
       clipPathUnits="userSpaceOnUse"
       id="clipPath300"><path
         d="m 364.992,251.635 h 0.121 v -0.406 h -0.121 z"
         id="path298" /></clipPath></defs><sodipodi:namedview
     pagecolor="#ffffff"
     bordercolor="#666666"
     borderopacity="1"
     objecttolerance="10"
     gridtolerance="10"
     guidetolerance="10"
     inkscape:pageopacity="0"
     inkscape:pageshadow="2"
     inkscape:window-width="640"
     inkscape:window-height="480"
     id="namedview4" /><g
     id="g10"
     inkscape:groupmode="layer"
     inkscape:label="Portrait"
     transform="matrix(1.3333333,0,0,-1.3333333,0,793.70133)"><path
       d="M 0,0 H 595.276 V 595.276 H 0 Z"
       style="fill:#24c4c4;fill-opacity:0;fill-rule:nonzero;stroke:none"
       id="path12" /><g
       id="g14"><g
         id="g16"
         clip-path="url(#clipPath20)"><g
           id="g22"
           transform="translate(505.9189,-4e-4)"><path
             d="m 0,0 h -416.562 c 0.497,2.439 9.275,46.825 16.592,60.963 0,0 0.482,16.096 19.513,28.291 19.016,12.195 115.617,75.612 115.617,75.612 h 119.486 L -32.672,82.915 c 0,0 20.477,-15.116 20.477,-33.65 z"
             style="fill:#eeeced;fill-opacity:1;fill-rule:nonzero;stroke:none"
             id="path24" /></g><g
           id="g26"
           transform="translate(274.1577,41.3141)"><path
             d="m 0,0 c 2.319,7.709 7.468,33.094 -16.697,54.188 -4.412,3.854 -9.802,7.573 -16.382,11.006 -2.318,1.204 -4.17,2.379 -5.57,3.494 -2.334,1.851 -3.478,3.567 -3.599,5.164 -0.03,0.331 -0.015,0.662 0.045,0.978 4.668,-6.128 16.201,-16.743 42.278,-22.253 0,0 13.566,-1.22 17.511,-13.416 C 21.53,26.966 36,5.014 36,5.014 c 0,0 0.044,-0.106 0.12,-0.301 -19.212,-3.749 -36.918,-7.031 -36.918,-7.031 0,0 0.331,0.797 0.768,2.228 0,0.03 0.015,0.06 0.03,0.09"
             style="fill:#afafaf;fill-opacity:1;fill-rule:nonzero;stroke:none"
             id="path28" /></g><g
           id="g30"
           transform="translate(291.7422,65.4244)"><path
             d="M 0,0 C 0,0 2.605,24.301 -23.7,28.467 -50.006,32.632 -72.841,60.486 -74.347,76.295 -75.852,92.104 39.328,94.613 39.328,94.613 L 56.643,88.34 61.662,69.771 c 0,0 -16.813,-38.193 -20.577,-41.304 C 37.32,25.354 0,0 0,0"
             style="fill:#b25452;fill-opacity:1;fill-rule:nonzero;stroke:none"
             id="path32" /></g><g
           id="g34"
           transform="translate(307.8838,31.693)"><path
             d="m 0,0 c -3.538,-5.465 -7.498,-19.196 -9.365,-31.693 h -33.214 c 1.385,11.969 3.99,27.974 8.823,41.224 0,0.031 0.015,0.06 0.03,0.09 1.972,5.375 4.291,10.284 7.061,14.289 15.448,22.434 -2.439,32.191 -10.569,35.608 -2.876,1.205 -7.709,2.319 -13.189,4.291 -7.227,2.605 -15.569,6.7 -21.952,14.5 -1.295,1.565 -2.5,3.282 -3.599,5.164 -0.933,1.565 -1.776,3.236 -2.514,5.044 0.361,-0.769 1.144,-2.214 2.559,-4.066 4.668,-6.128 16.201,-16.743 42.278,-22.253 0,0 13.566,-1.219 17.511,-13.416 3.944,-12.195 18.413,-34.147 18.413,-34.147 0,0 0.045,-0.106 0.121,-0.301 C 2.921,12.994 4.697,7.242 0,0"
             style="fill:#c4c4c4;fill-opacity:1;fill-rule:nonzero;stroke:none"
             id="path36" /></g><g
           id="g38"
           transform="translate(373.5293,155.4313)"><path
             d="m 0,0 c 0.282,-12.843 -8.086,-23.252 -42.23,-39.349 -34.144,-16.096 -35.811,-44.485 -35.811,-44.485 10e-4,-10e-4 10e-4,-0.002 10e-4,-0.003 5.746,-11.72 14.675,-25.263 14.675,-25.263 0,0 0.708,-1.46 0.855,-3.89 0,0 0.281,28.766 36.647,51.448 C 10.502,-38.86 0,0 0,0"
             style="fill:#c4c4c4;fill-opacity:1;fill-rule:nonzero;stroke:none"
             id="path40" /></g><g
           id="g42"
           transform="translate(153.5781,358.7965)"><path
             d="m 0,0 c -2.964,7.868 -8.584,20.265 -13.973,18.244 -7.805,-2.927 -14.194,-39.997 2.902,-80.482 0.597,-1.413 1.167,-2.653 1.713,-3.741 C -7.145,-40.739 -3.927,-19.003 0,0"
             style="fill:#b27067;fill-opacity:1;fill-rule:nonzero;stroke:none"
             id="path44" /></g><g
           id="g46"
           transform="translate(455.6807,377.2599)"><path
             d="m 0,0 c -6.201,9.442 -15.459,-3.242 -21.998,-15.207 4.19,-24.417 7.161,-51.536 7.29,-78.094 15.113,-0.196 12.27,12.697 12.27,39.427 C -2.438,-24.608 9.756,-14.853 0,0"
             style="fill:#b27067;fill-opacity:1;fill-rule:nonzero;stroke:none"
             id="path48" /></g><g
           id="g50"
           transform="translate(435.5156,225.3024)"><path
             d="m 0,0 c -1.957,-9.004 -4.713,-17.36 -8.115,-25.084 -27.011,-61.369 -95.743,-83.366 -147.717,-78.819 -39.342,3.447 -90.564,25.715 -117.921,70.824 -13.37,22.013 -21.049,49.46 -18.895,82.824 1.46,22.51 3.658,42.444 6.459,60.255 9.801,62.604 26.77,98.875 43.286,128.506 6.068,10.856 16.728,17.902 28.863,22.419 0.03,0.015 0.045,0.03 0.045,0.03 30.339,11.277 69.862,6.805 69.862,6.805 0,0 14.634,0 53.419,-5.842 4.336,-0.647 8.341,-1.385 12.09,-2.183 29.767,-6.443 42.053,-18.082 53.751,-39.522 C -16.983,205.729 -3.297,158.392 2.62,105.439 6.55,70.071 7.031,32.22 0,0"
             style="fill:#d6968b;fill-opacity:1;fill-rule:nonzero;stroke:none"
             id="path52" /></g><g
           id="g54"
           transform="translate(234.5576,257.5367)"><path
             d="m 0,0 c 0,0 69.426,-23.738 115.602,0 0,0 9.105,4.228 14.959,0 0,0 -9.106,-3.216 -17.885,-10.551 -7.607,-6.353 -36.446,-33.804 -78.271,-16.717 -8.934,3.651 -17.116,8.908 -24.344,15.304 -4.72,4.178 -12.83,10.116 -20.523,9.819 0,0 5.103,3.793 10.462,2.145"
             style="fill:#eeeced;fill-opacity:1;fill-rule:nonzero;stroke:none"
             id="path56" /></g><g
           id="g58"
           transform="translate(294.0562,223.9957)"><path
             d="m 0,0 c -0.416,0 -0.753,0.337 -0.753,0.753 v 22.37 c 0,0.416 0.337,0.753 0.753,0.753 0.416,0 0.753,-0.337 0.753,-0.753 V 0.753 C 0.753,0.337 0.416,0 0,0"
             style="fill:#c9c9c9;fill-opacity:1;fill-rule:nonzero;stroke:none"
             id="path60" /></g><g
           id="g62"
           transform="translate(268.9624,229.5172)"><path
             d="m 0,0 c -0.07,0 -0.141,0.01 -0.212,0.03 -0.399,0.118 -0.627,0.535 -0.51,0.934 l 5.425,18.45 c 0.116,0.401 0.538,0.628 0.934,0.511 0.4,-0.118 0.628,-0.536 0.51,-0.935 L 0.722,0.541 C 0.626,0.212 0.326,0 0,0"
             style="fill:#c9c9c9;fill-opacity:1;fill-rule:nonzero;stroke:none"
             id="path64" /></g><g
           id="g66"
           transform="translate(318.7227,228.2184)"><path
             d="m 0,0 c -0.332,0 -0.637,0.223 -0.728,0.558 l -5,18.649 c -0.106,0.403 0.131,0.814 0.533,0.924 0.406,0.098 0.815,-0.133 0.924,-0.532 L 0.728,0.948 C 0.835,0.546 0.597,0.134 0.195,0.025 0.129,0.009 0.064,0 0,0"
             style="fill:#c9c9c9;fill-opacity:1;fill-rule:nonzero;stroke:none"
             id="path68" /></g><g
           id="g70"
           transform="translate(250.4907,240.0387)"><path
             d="m 0,0 c -0.125,0 -0.252,0.031 -0.369,0.097 -0.362,0.205 -0.49,0.663 -0.286,1.026 l 6.178,10.956 c 0.203,0.361 0.661,0.492 1.026,0.285 0.362,-0.204 0.49,-0.663 0.286,-1.026 L 0.656,0.382 C 0.518,0.139 0.263,0 0,0"
             style="fill:#c9c9c9;fill-opacity:1;fill-rule:nonzero;stroke:none"
             id="path72" /></g><g
           id="g74"
           transform="translate(337.9541,238.7418)"><path
             d="m 0,0 c -0.28,0 -0.551,0.159 -0.681,0.431 l -5.4,11.389 c -0.178,0.375 -0.018,0.824 0.359,1.003 0.368,0.175 0.824,0.019 1.002,-0.359 L 0.682,1.075 C 0.859,0.7 0.699,0.252 0.322,0.072 0.22,0.023 0.109,0 0,0"
             style="fill:#c9c9c9;fill-opacity:1;fill-rule:nonzero;stroke:none"
             id="path76" /></g><g
           id="g78"
           transform="translate(239.1479,249.1237)"><path
             d="M 0,0 C -0.151,0 -0.303,0.046 -0.436,0.14 -0.774,0.381 -0.854,0.851 -0.613,1.189 L 3.251,6.626 C 3.492,6.964 3.96,7.043 4.301,6.802 4.64,6.561 4.719,6.092 4.479,5.752 L 0.614,0.316 C 0.467,0.11 0.235,0 0,0"
             style="fill:#c9c9c9;fill-opacity:1;fill-rule:nonzero;stroke:none"
             id="path80" /></g><g
           id="g82"
           transform="translate(349.6963,248.1842)"><path
             d="m 0,0 c -0.25,0 -0.493,0.125 -0.637,0.352 l -4.062,6.455 c -0.222,0.352 -0.116,0.817 0.235,1.038 0.352,0.221 0.818,0.116 1.038,-0.236 L 0.637,1.154 C 0.859,0.802 0.753,0.337 0.401,0.116 0.276,0.037 0.139,0 0,0"
             style="fill:#c9c9c9;fill-opacity:1;fill-rule:nonzero;stroke:none"
             id="path84" /></g><g
           id="g86"><g
             id="g88" /><g
             id="g104"><g
               clip-path="url(#clipPath92)"
               id="g102"><g
                 transform="translate(234.5576,254.3658)"
                 id="g96"><path
                   d="m 0,0 c 0,0 69.426,-23.738 115.602,0 0,0 9.105,4.228 14.959,0 C 125.032,7.479 109.099,4.877 98.042,1.474 86.986,-1.931 55.443,-3.252 25.852,3.17 -3.737,9.592 -10.461,-2.144 -10.462,-2.145 -10.46,-2.145 -5.358,1.648 0,0"
                   style="fill:#c9c9c9;fill-opacity:1;fill-rule:nonzero;stroke:none"
                   id="path94" /></g><g
                 transform="translate(224.0957,252.2213)"
                 id="g100"><path
                   d="M 0,0 Z"
                   style="fill:#c9c9c9;fill-opacity:1;fill-rule:nonzero;stroke:none"
                   id="path98" /></g></g></g></g><g
           id="g106"
           transform="translate(435.5156,225.3024)"><path
             d="m 0,0 c -1.957,-9.004 -4.713,-17.36 -8.115,-25.084 -30.474,12.737 -48.903,26.273 -24.437,35.713 60.105,23.202 23.353,80.808 9.155,161.975 -10.374,59.337 -40.02,80.206 -55.227,87.131 29.767,-6.443 42.053,-18.082 53.751,-39.522 C -11.698,196.062 17.556,80.476 0,0"
             style="fill:#b27067;fill-opacity:1;fill-rule:nonzero;stroke:none"
             id="path108" /></g><g
           id="g110"
           transform="translate(221.4761,486.2272)"><path
             d="m 0,0 c -0.874,-0.587 -14.921,-10.329 -23.669,-27.824 -9.019,-18.068 -65.479,-125.976 -25.581,-203.019 17.903,-34.569 7.002,-53.178 -10.463,-63.161 -13.37,22.013 -21.049,49.46 -18.896,82.824 6.58,101.691 28.532,150.714 49.746,188.761 C -22.795,-11.563 -12.136,-4.517 0,0"
             style="fill:#b27067;fill-opacity:1;fill-rule:nonzero;stroke:none"
             id="path112" /></g><g
           id="g114"
           transform="translate(461.5332,453.1334)"><path
             d="m 0,0 c -0.903,-3.839 -1.461,-8.461 -1.958,-13.792 -1.896,-20.386 -2.785,-51.236 -18.157,-89.133 0,0 -0.197,-9.184 -2.891,-23.216 -5.661,54.443 -19.8,103.707 -27.885,118.523 -9.982,18.293 -20.385,29.45 -41.735,36.346 h -0.046 c -6.79,2.198 -14.694,3.944 -24.059,5.359 -38.786,5.842 -53.42,5.842 -53.42,5.842 0,0 -64.546,7.302 -91.979,-20.31 0,0 -0.015,-0.015 -0.06,-0.061 -0.045,-0.045 -0.105,-0.09 -0.151,-0.15 l -0.271,-0.271 c -2.439,-2.515 -4.562,-5.33 -6.308,-8.462 -7.83,-14.048 -15.749,-29.586 -22.976,-48.707 -7.227,-19.136 -13.731,-41.857 -18.73,-70.268 0,0 -17.691,51.718 -8.401,91.708 1.34,5.781 3.056,10.976 5.043,15.613 11.835,27.463 33.756,35.172 49.611,26.831 0,0 -11.699,11.698 7.799,32.19 19.513,20.492 111.702,86.83 184.876,54.143 C 1.46,79.512 4.396,18.534 0,0"
             style="fill:#311816;fill-opacity:1;fill-rule:nonzero;stroke:none"
             id="path116" /></g><g
           id="g118"
           transform="translate(198.9214,472.2701)"><path
             d="m 0,0 c -2.439,-2.515 -4.562,-5.33 -6.309,-8.462 -7.829,-14.047 -15.748,-29.585 -22.975,-48.707 -7.227,-19.136 -13.732,-41.856 -18.73,-70.268 0,0 -17.692,51.719 -8.402,91.708 1.34,5.782 3.057,10.977 5.044,15.614 -9.801,-40.938 19.001,-34.57 25.174,-18.098 C -19.377,-20.01 -3.011,-3.026 0,0"
             style="fill:#281312;fill-opacity:1;fill-rule:nonzero;stroke:none"
             id="path120" /></g><g
           id="g122"
           transform="translate(459.5752,439.3419)"><path
             d="m 0,0 c -1.896,-20.386 -2.785,-51.236 -18.157,-89.133 0,0 -0.197,-9.184 -2.891,-23.217 -5.661,54.444 -19.8,103.708 -27.885,118.523 -9.982,18.293 -20.385,29.45 -41.735,36.346 1.551,-0.15 42.007,-4.381 57.273,-42.775 C -24.135,-23.563 -10.614,-20.898 0,0"
             style="fill:#281312;fill-opacity:1;fill-rule:nonzero;stroke:none"
             id="path124" /></g><g
           id="g126"
           transform="translate(247.8696,253.8639)"><path
             d="M 0,0 C -0.061,-0.061 -0.316,-0.331 -0.858,-0.603 Z"
             style="fill:#311816;fill-opacity:1;fill-rule:nonzero;stroke:none"
             id="path128" /></g><g
           id="g130"
           transform="translate(177.9697,387.1144)"><path
             d="m 0,0 c 0,0 22.193,37.396 73.816,23.657 0,0 2.845,1.788 7.235,-4.471 0,0 2.032,3.251 3.984,1.544 1.951,-1.707 3.089,-6.259 3.089,-6.259 0,0 1.219,3.252 3.739,2.601 2.521,-0.65 2.439,-5.691 2.439,-5.691 0,0 1.951,3.171 3.171,3.09 1.219,-0.082 3.658,-2.439 2.926,-5.61 0,0 1.626,1.707 2.195,-0.975 0,0 3.984,-0.732 3.496,-4.878 0,0 1.87,3.414 3.577,2.276 1.708,-1.138 1.057,-13.901 -14.958,-16.584 0,0 -2.114,-3.414 -10.731,6.423 C 75.36,4.959 57.679,29.267 0,0"
             style="fill:#311816;fill-opacity:1;fill-rule:nonzero;stroke:none"
             id="path132" /></g><g
           id="g134"
           transform="translate(210.1772,322.7609)"><path
             d="m 0,0 c 0,0 -13.503,5.502 -18.056,25.176 -4.552,19.674 8.887,29.42 13.549,33.327 4.661,3.906 26.525,15.643 52.42,-7.866 0,0 17.391,-31.475 -8.355,-49.686 C 39.558,0.951 19.844,-8.266 0,0"
             style="fill:#eeeced;fill-opacity:1;fill-rule:nonzero;stroke:none"
             id="path136" /></g><g
           id="g138"
           transform="translate(256.6699,352.5704)"><path
             d="m 0,0 c 0,-16.836 -10.701,-30.485 -23.901,-30.485 -13.2,0 -23.9,13.649 -23.9,30.485 0,16.837 10.7,30.486 23.9,30.486 C -10.701,30.486 0,16.837 0,0"
             style="fill:#555a68;fill-opacity:1;fill-rule:nonzero;stroke:none"
             id="path140" /></g><g
           id="g142"
           transform="translate(250.4917,352.652)"><path
             d="m 0,0 c 0,-12.841 -7.134,-23.25 -15.934,-23.25 -8.8,0 -15.934,10.409 -15.934,23.25 0,12.841 7.134,23.25 15.934,23.25 C -7.134,23.25 0,12.841 0,0"
             style="fill:#1c0a07;fill-opacity:1;fill-rule:nonzero;stroke:none"
             id="path144" /></g><g
           id="g146"
           transform="translate(234.5576,257.5367)"><path
             d="m 0,0 c 0,0 69.426,-23.738 115.602,0 0,0 9.105,4.228 14.959,0 C 125.032,7.479 109.099,4.877 98.042,1.474 86.986,-1.931 55.443,-3.252 25.852,3.17 -3.737,9.592 -10.461,-2.144 -10.462,-2.145 -10.46,-2.145 -5.358,1.648 0,0"
             style="fill:#bc6557;fill-opacity:1;fill-rule:nonzero;stroke:none"
             id="path148" /></g><g
           id="g150"
           transform="translate(224.0957,255.3922)"><path
             d="M 0,0 Z"
             style="fill:#bc6557;fill-opacity:1;fill-rule:nonzero;stroke:none"
             id="path152" /></g><g
           id="g154"><g
             id="g156" /><g
             id="g168"><g
               clip-path="url(#clipPath160)"
               opacity="0.5"
               id="g166"><g
                 transform="translate(380.0781,205.0045)"
                 id="g164"><path
                   d="m 0,0 c -0.979,4.156 -3.899,6.339 -3.899,6.339 -0.256,-13.897 -10.735,-19.016 -10.735,-19.016 0.24,2.68 -1.22,7.558 -1.22,7.558 -1.958,-7.558 -9.515,-17.556 -9.515,-17.556 0.497,5.361 -1.701,9.757 -1.701,9.757 0,0 -7.815,-15.613 -10.239,-17.314 -2.439,-1.717 -3.177,10.478 -3.177,10.478 0,0 -3.417,-19.016 -11.457,-10.961 -8.056,8.04 -2.44,26.334 -2.44,26.334 -32.762,-15.779 -62.197,-0.978 -62.197,-0.978 2.198,-19.514 -5.119,-26.83 -15.478,-25.129 -10.359,1.716 -14.032,20.25 -14.032,20.25 0,-2.439 -0.482,-7.076 -0.482,-7.076 -4.879,9.756 -8.055,15.372 -8.055,15.372 -0.482,-3.177 0.24,-9.034 0.24,-9.034 -3.899,4.878 -7.317,17.571 -7.317,17.571 -0.723,-2.439 -1.461,-6.835 -1.461,-6.835 -3.417,5.856 -5.359,17.826 -5.359,17.826 -1.957,-3.147 -2.936,-6.609 -2.936,-6.609 -1.461,19.753 4.155,23.909 9.274,31.226 5.12,7.318 14.394,4.352 14.394,4.352 l -3.177,-1.19 c 6.595,-0.888 12.587,0.798 13.717,1.129 l -5.662,-2.107 c 5.706,-1.295 8.582,-0.528 9.847,0.12 l -3.267,-2.304 c 11.578,0.467 19.031,2.996 19.498,3.147 l -4.863,-4.125 c 22.193,-0.979 29.269,10.735 29.269,10.735 -0.091,-1.22 -1.385,-4.472 -1.385,-4.472 2.891,1.822 4.652,4.156 4.863,4.442 l -1.611,-3.795 c 2.755,1.295 4.923,3.825 4.923,3.825 v -4.321 c 1.837,1.626 3.689,4.321 3.689,4.321 9.757,-14.395 27.478,-10.163 27.478,-10.163 l -4.065,6.173 c 3.899,-3.087 11.382,-3.418 11.382,-3.418 -2.439,1.957 -6.338,6.67 -6.338,6.67 10.569,-8.462 20.807,-7.152 20.807,-7.152 -2.92,2.439 -4.501,5.195 -4.501,5.195 7.061,-6.701 18.037,-5.601 18.037,-5.601 -2.68,1.821 -5.12,5.239 -5.12,5.239 5.497,-1.701 13.537,-10.855 13.537,-10.855 C 3.659,22.931 0,0 0,0 m 58.058,129.951 c -1.461,6.745 -2.499,11.096 -2.499,11.096 0.737,-14.559 3.944,-47.216 1.67,-58.9 0,0 -0.421,4.005 -1.806,7.257 0,0 0.918,-9.063 -0.467,-15.447 0,0 0.226,4.186 -1.747,8.371 0,0 0.813,-9.244 -1.038,-14.334 0,0 0,3.99 -1.055,7.469 0,0 -0.812,-12.422 -6.158,-19.859 0,0 1.627,3.598 1.867,7.663 0,0 -5.224,-13.822 -17.194,-17.42 0,0 2.214,-0.587 6.158,0.466 0,0 -3.719,-3.373 -13.476,-2.906 0,0 3.132,-1.505 6.264,-1.626 0,0 -4.472,-3.463 -10.75,-2.198 -2.785,0.316 -5.255,2.409 -8.567,7.498 -6.143,9.44 -11.593,13.159 -11.924,13.386 l 2.168,-6.324 c -8.251,9.937 -15.629,13.43 -16.08,13.641 l 1.942,-5.104 c -9.019,7.558 -17.315,8.777 -17.315,8.777 l 2.198,-2.921 c -13.415,5.36 -19.182,6.385 -23.714,4.638 -4.531,-1.732 -5.931,0.933 -5.931,0.933 -7.665,0.814 -14.635,-4.291 -14.635,-4.291 -11.955,-7.437 -20.597,-0.225 -20.597,-0.225 -2.997,2.363 -7.874,5.826 -9.591,4.892 -6.173,-3.402 -10.705,-0.812 -10.705,-0.812 -2.469,-0.542 -4.261,-0.769 -8.236,-0.994 -8.627,-0.467 -16.833,-3.388 -17.797,-3.749 l 4.427,2.394 c -12.481,-1.686 -20.732,-7.302 -21.229,-7.649 2.273,2.063 4.456,3.598 4.713,3.795 -8.251,-2.44 -17.752,-7.543 -21.937,-14.032 -4.036,-6.294 -9.501,-9.772 -9.848,-9.983 l 2.771,3.011 c -8.597,-4.758 -15.794,0 -15.794,0 3.132,0.121 6.263,1.626 6.263,1.626 -9.756,-0.467 -13.475,2.906 -13.475,2.906 3.945,-1.054 6.158,-0.467 6.158,-0.467 -11.969,3.599 -17.194,17.42 -17.194,17.42 0.241,-4.065 1.867,-7.663 1.867,-7.663 -5.345,7.438 -6.158,19.859 -6.158,19.859 -1.054,-3.478 -1.054,-7.468 -1.054,-7.468 -1.852,5.089 -1.039,14.334 -1.039,14.334 -1.972,-4.186 -1.746,-8.371 -1.746,-8.371 -1.386,6.383 -0.467,15.447 -0.467,15.447 -1.385,-3.252 -1.807,-7.257 -1.807,-7.257 -3.749,19.182 0,63.206 0,63.206 -1.551,-5.285 -2.966,-10.464 -4.246,-15.523 -2.8,-17.811 -4.998,-37.746 -6.459,-60.255 -2.153,-33.364 5.525,-60.813 18.896,-82.824 27.357,-45.109 78.578,-67.377 117.92,-70.826 51.974,-4.546 120.707,17.451 147.717,78.821 3.403,7.723 6.158,16.08 8.116,25.083 7.031,32.22 6.549,70.072 2.62,105.439"
                   style="fill:#b27067;fill-opacity:1;fill-rule:nonzero;stroke:none"
                   id="path162" /></g></g></g></g><g
           id="g170"
           transform="translate(365.1123,257.5377)"><path
             d="m 0,0 c -8.446,-35.774 -39.417,-53.164 -39.417,-53.164 0,0 -31.136,-17.073 -62.197,-0.979 -31.061,16.095 -39.403,51.99 -39.403,51.99 0.542,0.015 1.084,0.015 1.642,-0.031 7.181,-0.497 14.499,-5.901 18.88,-9.786 7.227,-6.399 15.418,-11.653 24.346,-15.298 41.827,-17.088 70.659,10.36 78.262,16.713 C -9.094,-3.223 0,0 0,0"
             style="fill:#cd7a69;fill-opacity:1;fill-rule:nonzero;stroke:none"
             id="path172" /></g><g
           id="g174"
           transform="translate(365.1123,257.5377)"><path
             d="m 0,0 c -8.446,-35.774 -39.417,-53.164 -39.417,-53.164 0,0 -31.136,-17.073 -62.197,-0.979 -31.061,16.095 -39.403,51.99 -39.403,51.99 0.542,0.015 1.084,0.015 1.642,-0.031 3.507,-9.138 19.031,-44.069 53.389,-48.646 C -46.403,-56.085 -11.353,-37.325 0,0"
             style="fill:#bc6557;fill-opacity:1;fill-rule:nonzero;stroke:none"
             id="path176" /></g><g
           id="g178"
           transform="translate(197.812,328.4259)"><path
             d="m 0,0 c 3.033,-0.321 5.574,-0.98 8.09,-1.81 2.511,-0.808 5.035,-1.54 7.609,-2.021 2.567,-0.511 5.157,-0.83 7.741,-1.041 l 3.878,-0.214 3.877,0.045 c 1.291,-0.036 2.576,0.159 3.864,0.229 1.287,0.102 2.579,0.152 3.853,0.391 1.28,0.189 2.558,0.394 3.847,0.55 l 3.805,0.856 c 1.277,0.268 2.563,0.514 3.821,0.894 1.279,0.31 2.569,0.61 3.905,0.831 2.64,0.534 5.272,1.195 8.308,1.29 -0.937,-1.146 -2.015,-2.085 -3.095,-3.055 -1.112,-0.903 -2.211,-1.884 -3.461,-2.556 -2.486,-1.367 -5.016,-2.798 -7.799,-3.499 -1.373,-0.4 -2.743,-0.827 -4.128,-1.201 -1.407,-0.29 -2.824,-0.531 -4.24,-0.789 -1.409,-0.307 -2.847,-0.417 -4.287,-0.503 l -2.157,-0.15 -1.078,-0.071 -1.082,0.034 c -5.775,-0.07 -11.513,1.056 -16.938,2.808 -2.719,0.877 -5.357,1.973 -7.912,3.21 C 3.93,-4.422 1.538,-2.682 0,0"
             style="fill:#1c0a07;fill-opacity:1;fill-rule:nonzero;stroke:none"
             id="path180" /></g><g
           id="g182"
           transform="translate(195.417,320.9147)"><path
             d="m 0,0 c 4.628,-4.485 9.708,-8.223 15.164,-10.76 5.451,-2.549 11.269,-3.754 17.127,-3.521 2.933,0.119 5.855,0.662 8.763,1.385 2.899,0.776 5.768,1.817 8.595,3.051 5.702,2.412 11.105,5.739 16.686,9.084 l 0.323,-0.365 c -4.066,-5.117 -9.004,-9.587 -14.732,-13.079 -1.459,-0.822 -2.89,-1.717 -4.453,-2.382 -0.774,-0.345 -1.523,-0.745 -2.323,-1.044 l -2.407,-0.878 c -3.255,-1.06 -6.668,-1.801 -10.162,-1.973 -6.988,-0.371 -14.117,1.555 -19.875,5.29 -2.908,1.828 -5.464,4.105 -7.699,6.597 -2.185,2.541 -4.127,5.264 -5.419,8.334 z"
             style="fill:#b25452;fill-opacity:1;fill-rule:nonzero;stroke:none"
             id="path184" /></g><g
           id="g186"
           transform="translate(191.3086,378.1788)"><path
             d="m 0,0 c 1.889,3.076 4.467,5.671 7.136,8.115 2.707,2.413 5.666,4.6 8.908,6.334 1.579,0.947 3.301,1.631 4.981,2.408 1.765,0.566 3.491,1.281 5.333,1.622 3.615,0.988 7.429,1.072 11.173,0.848 3.769,-0.443 7.367,-1.264 10.824,-2.599 1.769,-0.548 3.41,-1.44 5.089,-2.205 1.604,-0.928 3.255,-1.767 4.744,-2.873 3.03,-2.113 5.795,-4.599 8.11,-7.442 2.284,-2.851 4.276,-5.975 5.405,-9.411 -3.901,6.025 -9.211,10.806 -15.154,14.301 -1.463,0.918 -3.034,1.644 -4.568,2.42 -1.613,0.62 -3.164,1.366 -4.818,1.866 -0.82,0.266 -1.627,0.571 -2.455,0.807 l -2.513,0.627 -1.256,0.315 -1.251,0.2 -2.504,0.401 C 30.456,16.361 23.555,14.979 17.267,12.029 15.671,11.338 14.161,10.466 12.608,9.651 11.108,8.747 9.62,7.814 8.17,6.807 5.298,4.771 2.446,2.608 0,0"
             style="fill:#b25452;fill-opacity:1;fill-rule:nonzero;stroke:none"
             id="path188" /></g><g
           id="g190"
           transform="translate(420.0029,387.1144)"><path
             d="m 0,0 c 0,0 -22.194,37.396 -73.816,23.657 0,0 -2.846,1.788 -7.236,-4.471 0,0 -2.032,3.251 -3.983,1.544 -1.951,-1.707 -3.089,-6.259 -3.089,-6.259 0,0 -1.22,3.252 -3.74,2.601 -2.52,-0.65 -2.439,-5.691 -2.439,-5.691 0,0 -1.951,3.171 -3.171,3.09 -1.218,-0.082 -3.658,-2.439 -2.926,-5.61 0,0 -1.626,1.707 -2.195,-0.975 0,0 -3.983,-0.732 -3.496,-4.878 0,0 -1.87,3.414 -3.577,2.276 -1.707,-1.138 -1.057,-13.901 14.959,-16.584 0,0 2.113,-3.414 10.73,6.423 C -75.361,4.959 -57.68,29.267 0,0"
             style="fill:#311816;fill-opacity:1;fill-rule:nonzero;stroke:none"
             id="path192" /></g><g
           id="g194"
           transform="translate(387.7949,322.7609)"><path
             d="m 0,0 c 0,0 13.503,5.502 18.056,25.176 4.552,19.674 -8.887,29.42 -13.549,33.327 -4.661,3.906 -26.526,15.643 -52.42,-7.866 0,0 -17.391,-31.475 8.354,-49.686 0,0 19.715,-9.217 39.559,-0.951"
             style="fill:#eeeced;fill-opacity:1;fill-rule:nonzero;stroke:none"
             id="path196" /></g><g
           id="g198"
           transform="translate(341.3018,352.5704)"><path
             d="m 0,0 c 0,-16.836 10.701,-30.485 23.901,-30.485 13.201,0 23.901,13.649 23.901,30.485 0,16.837 -10.7,30.486 -23.901,30.486 C 10.701,30.486 0,16.837 0,0"
             style="fill:#555a68;fill-opacity:1;fill-rule:nonzero;stroke:none"
             id="path200" /></g><g
           id="g202"
           transform="translate(347.4805,352.652)"><path
             d="m 0,0 c 0,-12.841 7.134,-23.25 15.934,-23.25 8.8,0 15.934,10.409 15.934,23.25 0,12.841 -7.134,23.25 -15.934,23.25 C 7.134,23.25 0,12.841 0,0"
             style="fill:#1c0a07;fill-opacity:1;fill-rule:nonzero;stroke:none"
             id="path204" /></g><g
           id="g206"
           transform="translate(410.4033,367.6105)"><path
             d="m 0,0 c -1.643,1.285 -3.31,2.508 -5.034,3.644 -1.692,1.171 -3.427,2.271 -5.199,3.284 -3.517,2.062 -7.117,3.92 -10.837,5.331 -3.726,1.379 -7.515,2.403 -11.277,2.865 -0.934,0.133 -1.876,0.14 -2.801,0.233 -0.463,0.04 -0.925,0.1 -1.386,0.125 l -1.378,-0.034 c -0.913,-0.026 -1.833,0.064 -2.733,-0.042 l -2.694,-0.277 c -7.282,-1.015 -14.365,-4.165 -20.983,-8.412 -3.279,-2.173 -6.483,-4.591 -9.464,-7.31 -3.017,-2.697 -5.989,-5.463 -9.298,-8.221 0.577,2.091 1.471,4.053 2.509,5.91 1.015,1.881 2.227,3.633 3.515,5.334 2.633,3.348 5.529,6.55 8.791,9.429 3.22,2.925 6.883,5.465 10.882,7.467 3.964,2.101 8.391,3.36 12.923,4.067 l 3.479,0.299 c 1.159,0.057 2.309,-0.094 3.461,-0.138 l 1.719,-0.14 c 0.565,-0.088 1.122,-0.212 1.682,-0.317 1.112,-0.244 2.234,-0.447 3.316,-0.757 4.325,-1.316 8.306,-3.24 12.029,-5.438 C -11.431,12.361 -5.017,6.695 0,0"
             style="fill:#1c0a07;fill-opacity:1;fill-rule:nonzero;stroke:none"
             id="path208" /></g><g
           id="g210"
           transform="translate(400.1602,328.4259)"><path
             d="m 0,0 c -1.538,-2.682 -3.931,-4.422 -6.421,-5.772 -2.556,-1.237 -5.193,-2.333 -7.912,-3.21 -5.425,-1.752 -11.163,-2.878 -16.938,-2.808 l -1.082,-0.034 -1.079,0.071 -2.156,0.15 c -1.439,0.086 -2.878,0.196 -4.287,0.503 -1.415,0.258 -2.834,0.499 -4.24,0.789 -1.385,0.374 -2.755,0.801 -4.128,1.201 -2.783,0.701 -5.314,2.132 -7.799,3.499 -1.251,0.672 -2.349,1.653 -3.462,2.556 -1.08,0.97 -2.157,1.909 -3.094,3.055 3.035,-0.095 5.668,-0.756 8.308,-1.29 1.336,-0.221 2.626,-0.521 3.905,-0.831 1.258,-0.38 2.544,-0.626 3.821,-0.894 l 3.804,-0.856 c 1.29,-0.156 2.568,-0.361 3.848,-0.55 1.274,-0.239 2.566,-0.289 3.852,-0.391 1.289,-0.07 2.574,-0.265 3.865,-0.229 l 3.877,-0.045 3.878,0.214 c 2.584,0.211 5.173,0.53 7.741,1.041 2.575,0.481 5.098,1.213 7.609,2.021 2.517,0.83 5.057,1.489 8.09,1.81"
             style="fill:#1c0a07;fill-opacity:1;fill-rule:nonzero;stroke:none"
             id="path212" /></g><g
           id="g214"
           transform="translate(402.5557,320.9147)"><path
             d="m 0,0 c -4.629,-4.485 -9.709,-8.223 -15.164,-10.76 -5.451,-2.549 -11.269,-3.754 -17.127,-3.521 -2.934,0.119 -5.855,0.662 -8.764,1.385 -2.898,0.776 -5.767,1.817 -8.595,3.051 -5.701,2.412 -11.105,5.739 -16.685,9.084 l -0.324,-0.365 c 4.066,-5.117 9.004,-9.587 14.732,-13.079 1.459,-0.822 2.89,-1.717 4.453,-2.382 0.774,-0.345 1.524,-0.745 2.323,-1.044 l 2.407,-0.878 c 3.255,-1.06 6.668,-1.801 10.162,-1.973 6.988,-0.371 14.117,1.555 19.876,5.29 2.907,1.828 5.464,4.105 7.698,6.597 2.186,2.541 4.127,5.264 5.42,8.334 z"
             style="fill:#b25452;fill-opacity:1;fill-rule:nonzero;stroke:none"
             id="path216" /></g><g
           id="g218"
           transform="translate(406.6631,378.1788)"><path
             d="m 0,0 c -1.889,3.076 -4.467,5.671 -7.136,8.115 -2.707,2.413 -5.666,4.6 -8.908,6.334 -1.579,0.947 -3.301,1.631 -4.981,2.408 -1.764,0.566 -3.491,1.281 -5.332,1.622 -3.615,0.988 -7.429,1.072 -11.173,0.848 -3.77,-0.443 -7.367,-1.264 -10.824,-2.599 -1.769,-0.548 -3.411,-1.44 -5.089,-2.205 -1.605,-0.928 -3.255,-1.767 -4.745,-2.873 -3.03,-2.113 -5.794,-4.599 -8.11,-7.442 -2.283,-2.851 -4.275,-5.975 -5.404,-9.411 3.901,6.025 9.21,10.806 15.153,14.301 1.463,0.918 3.034,1.644 4.569,2.42 1.612,0.62 3.164,1.366 4.818,1.866 0.819,0.266 1.626,0.571 2.455,0.807 l 2.513,0.627 1.255,0.315 1.251,0.2 2.504,0.401 c 6.729,0.627 13.629,-0.755 19.917,-3.705 1.596,-0.691 3.107,-1.563 4.66,-2.378 1.5,-0.904 2.988,-1.837 4.437,-2.844 C -5.297,4.771 -2.445,2.608 0,0"
             style="fill:#b25452;fill-opacity:1;fill-rule:nonzero;stroke:none"
             id="path220" /></g><g
           id="g222"
           transform="translate(227.1597,357.1237)"><path
             d="m 0,0 c 0,-4.628 -2.522,-8.38 -5.635,-8.38 -3.112,0 -5.635,3.752 -5.635,8.38 0,4.628 2.523,8.38 5.635,8.38 C -2.522,8.38 0,4.628 0,0"
             style="fill:#eeeced;fill-opacity:1;fill-rule:nonzero;stroke:none"
             id="path224" /></g><g
           id="g226"><g
             id="g228" /><g
             id="g240"><g
               clip-path="url(#clipPath232)"
               id="g238"><g
                 transform="translate(205.6699,368.6295)"
                 id="g236"><path
                   d="m 0,0 c 3.883,3.254 19.701,11.941 39.841,1.167 9.461,-5.062 16.082,-14.294 17.765,-24.891 0.015,-0.091 0.029,-0.184 0.043,-0.276 C 60.154,-9.257 52.42,4.768 52.42,4.768 26.525,28.278 4.662,16.541 0,12.634 -4.561,8.813 -17.511,-0.605 -13.809,-19.432 -11.449,-8.8 -3.397,-2.847 0,0"
                   style="fill:#c9c9c9;fill-opacity:1;fill-rule:nonzero;stroke:none"
                   id="path234" /></g></g></g></g><g
           id="g242"
           transform="translate(357.8027,354.8448)"><path
             d="m 0,0 c 0,-4.628 -2.522,-8.38 -5.635,-8.38 -3.112,0 -5.635,3.752 -5.635,8.38 0,4.628 2.523,8.38 5.635,8.38 C -2.522,8.38 0,4.628 0,0"
             style="fill:#eeeced;fill-opacity:1;fill-rule:nonzero;stroke:none"
             id="path244" /></g><g
           id="g246"
           transform="translate(380.0781,208.7555)"><path
             d="m 0,0 c -0.979,4.155 -3.899,6.339 -3.899,6.339 -0.256,-13.898 -10.735,-19.017 -10.735,-19.017 0.24,2.68 -1.22,7.559 -1.22,7.559 -1.958,-7.559 -9.515,-17.556 -9.515,-17.556 0.497,5.36 -1.701,9.756 -1.701,9.756 0,0 -7.815,-15.613 -10.239,-17.314 -2.439,-1.716 -3.177,10.479 -3.177,10.479 0,0 -3.417,-19.017 -11.457,-10.961 -4.924,4.923 -4.744,13.671 -3.855,19.724 0.572,3.854 1.415,6.609 1.415,6.609 -32.762,-15.779 -62.197,-0.978 -62.197,-0.978 0.256,-2.184 0.376,-4.216 0.376,-6.098 0.136,-14.936 -6.655,-20.537 -15.854,-19.031 -10.359,1.717 -14.032,20.251 -14.032,20.251 0,-2.44 -0.482,-7.077 -0.482,-7.077 -4.879,9.756 -8.055,15.373 -8.055,15.373 -0.482,-3.177 0.24,-9.035 0.24,-9.035 -3.899,4.879 -7.317,17.572 -7.317,17.572 -0.723,-2.44 -1.461,-6.836 -1.461,-6.836 -3.417,5.856 -5.359,17.826 -5.359,17.826 -1.957,-3.147 -2.936,-6.609 -2.936,-6.609 -1.461,19.753 4.155,23.909 9.274,31.226 5.12,7.318 14.394,4.352 14.394,4.352 l -3.177,-1.19 c 6.595,-0.888 12.587,0.798 13.717,1.129 l -5.662,-2.107 c 5.706,-1.295 8.582,-0.528 9.847,0.12 l -3.267,-2.304 c 11.578,0.467 19.031,2.996 19.498,3.148 l -4.863,-4.126 c 22.193,-0.979 29.269,10.735 29.269,10.735 -0.091,-1.22 -1.385,-4.472 -1.385,-4.472 2.891,1.822 4.652,4.156 4.863,4.442 l -1.611,-3.794 c 2.755,1.295 4.923,3.824 4.923,3.824 v -4.321 c 1.837,1.626 3.689,4.321 3.689,4.321 9.757,-14.394 27.478,-10.163 27.478,-10.163 l -4.065,6.173 c 3.899,-3.086 11.382,-3.418 11.382,-3.418 -2.439,1.958 -6.338,6.67 -6.338,6.67 10.569,-8.461 20.807,-7.152 20.807,-7.152 -2.92,2.44 -4.501,5.195 -4.501,5.195 7.061,-6.701 18.037,-5.601 18.037,-5.601 -2.68,1.821 -5.12,5.239 -5.12,5.239 2.876,-0.888 6.445,-3.809 9.185,-6.398 l 0.015,-0.03 c 2.5,-2.349 4.337,-4.427 4.337,-4.427 C 3.659,22.931 0,0 0,0 m 66.489,72.677 c -0.482,24.887 -10.93,68.37 -10.93,68.37 0.737,-14.56 3.944,-47.216 1.67,-58.901 0,0 -0.421,4.005 -1.806,7.258 0,0 0.918,-9.064 -0.467,-15.448 0,0 0.226,4.186 -1.747,8.371 0,0 0.813,-9.244 -1.038,-14.333 0,0 0,3.989 -1.055,7.468 0,0 -0.812,-12.422 -6.158,-19.859 0,0 1.627,3.598 1.867,7.664 0,0 -5.224,-13.823 -17.194,-17.421 0,0 2.214,-0.587 6.158,0.467 0,0 -3.719,-3.373 -13.476,-2.906 0,0 3.132,-1.506 6.264,-1.626 0,0 -4.472,-3.463 -10.75,-2.198 -2.785,0.315 -5.255,2.408 -8.567,7.498 -6.143,9.44 -11.593,13.159 -11.924,13.385 l 2.168,-6.324 c -8.251,9.937 -15.629,13.43 -16.08,13.641 l 1.942,-5.104 c -9.019,7.558 -17.315,8.778 -17.315,8.778 l 2.198,-2.921 c -13.415,5.36 -19.182,6.384 -23.714,4.637 -4.531,-1.732 -5.931,0.933 -5.931,0.933 -7.665,0.814 -14.635,-4.291 -14.635,-4.291 -11.955,-7.437 -20.597,-0.225 -20.597,-0.225 -2.997,2.364 -7.874,5.827 -9.591,4.893 -6.173,-3.403 -10.705,-0.813 -10.705,-0.813 -2.469,-0.542 -4.261,-0.768 -8.236,-0.993 -8.627,-0.467 -16.833,-3.388 -17.797,-3.749 l 4.427,2.393 c -12.481,-1.686 -20.732,-7.302 -21.229,-7.648 2.273,2.062 4.456,3.598 4.713,3.794 -8.251,-2.44 -17.752,-7.543 -21.937,-14.032 -4.036,-6.294 -9.501,-9.772 -9.848,-9.983 l 2.771,3.011 c -8.597,-4.758 -15.794,0 -15.794,0 3.132,0.121 6.263,1.627 6.263,1.627 -9.756,-0.467 -13.475,2.905 -13.475,2.905 3.945,-1.054 6.158,-0.467 6.158,-0.467 -11.969,3.599 -17.194,17.42 -17.194,17.42 0.241,-4.064 1.867,-7.663 1.867,-7.663 -5.345,7.438 -6.158,19.86 -6.158,19.86 -1.054,-3.479 -1.054,-7.468 -1.054,-7.468 -1.852,5.089 -1.039,14.333 -1.039,14.333 -1.972,-4.186 -1.746,-8.371 -1.746,-8.371 -1.386,6.383 -0.467,15.447 -0.467,15.447 -1.385,-3.252 -1.807,-7.257 -1.807,-7.257 -3.749,19.182 0,63.207 0,63.207 -41.119,-139.633 18.715,-199.059 18.715,-199.059 -0.979,2.935 -1.22,9.515 -1.22,9.515 3.855,-14.695 21.712,-29.751 21.712,-29.751 l -1.958,8.536 c 6.956,-16.591 31.889,-28.878 32.672,-29.254 -1.46,2.68 -2.921,6.324 -2.921,6.324 9.275,-14.378 25.852,-18.775 25.852,-18.775 -2.123,3.312 -4.246,8.672 -4.367,9.003 7.062,-9.741 19.243,-15.342 19.243,-15.342 -3.403,3.659 -5.842,8.778 -5.842,8.778 7.558,-8.778 18.037,-11.217 18.037,-11.217 -2.123,2.364 -4.712,8.612 -4.863,9.004 4.155,-5.601 15.357,-11.444 15.357,-11.444 -1.219,1.703 -3.177,5.858 -3.177,5.858 2.439,-3.915 8.296,-7.076 8.296,-7.076 1.883,1.415 6.761,7.181 7.062,7.543 -1.205,-2.68 -1.701,-5.345 -1.701,-5.345 6.338,2.183 10.253,6.82 10.253,6.82 l -2.695,-5.601 c 7.814,1.461 16.095,7.061 16.095,7.061 l -1.22,-4.878 c 9.034,4.638 12.196,8.793 12.196,8.793 -1.219,-3.418 -2.183,-5.616 -2.183,-5.616 9.26,4.878 13.896,9.516 13.896,9.516 l -2.198,-4.397 c 9.471,4.939 12.166,8.838 12.783,9.938 l -2.289,-4.819 c 17.316,9.757 32.191,27.072 32.191,27.072 l -2.439,-7.062 c 8.536,5.119 18.534,19.017 18.534,19.017 -1.219,-4.879 -1.701,-7.228 -1.701,-7.228 53.329,38.363 51.371,111.854 50.875,136.727"
             style="fill:#311816;fill-opacity:1;fill-rule:nonzero;stroke:none"
             id="path248" /></g><g
           id="g250"><g
             id="g252" /><g
             id="g264"><g
               clip-path="url(#clipPath256)"
               opacity="0.5"
               id="g262"><g
                 transform="translate(432.1943,344.7482)"
                 id="g260"><path
                   d="m 0,0 c -0.315,-3.786 -0.757,-7.564 -1.436,-11.285 -0.697,-3.712 -1.498,-7.409 -2.605,-11.003 -1.13,-3.577 -2.454,-7.095 -4.116,-10.439 -1.699,-3.313 -3.634,-6.517 -5.985,-9.4 -2.388,-2.831 -5.023,-5.494 -8.053,-7.683 -6.086,-4.291 -13.348,-7.119 -20.97,-7.998 -7.586,-0.977 -15.5,-0.458 -23.186,0.65 -1.92,0.298 -3.842,0.606 -5.72,1.096 l -2.831,0.663 -2.78,0.832 c -1.869,0.506 -3.661,1.225 -5.464,1.899 -0.913,0.314 -1.76,0.778 -2.64,1.161 -0.863,0.419 -1.766,0.761 -2.596,1.241 -3.416,1.74 -6.613,3.845 -9.587,6.197 -2.93,2.408 -5.604,5.093 -7.951,8.029 -9.425,11.82 -13.141,27.285 -13,42.198 l 0.038,1.396 c 0.021,0.429 0.036,1.03 0.066,1.196 0.06,0.517 0.21,1.021 0.431,1.499 0.226,0.482 0.51,0.916 0.89,1.338 l 1.917,2.07 1.917,2.064 2.04,1.93 c 0.687,0.634 1.337,1.31 2.053,1.91 l 2.154,1.783 c 5.776,4.7 12.168,8.587 19.059,11.286 13.753,5.536 28.969,6.807 43.93,5.411 3.751,-0.316 7.493,-0.861 11.22,-1.51 3.733,-0.616 7.444,-1.431 11.129,-2.353 7.358,-1.855 14.68,-4.146 21.652,-7.017 0.187,-0.041 0.338,-0.143 0.439,-0.321 0.048,-0.155 0.064,0.135 0.145,-1.172 L 0.336,22.831 C 0.507,19.034 0.57,15.219 0.557,11.406 0.527,7.594 0.335,3.785 0,0 m -160.497,-36.04 c -2.347,-2.936 -5.02,-5.621 -7.951,-8.029 -2.973,-2.352 -6.17,-4.457 -9.587,-6.197 -0.83,-0.48 -1.732,-0.822 -2.595,-1.241 -0.881,-0.383 -1.727,-0.847 -2.64,-1.161 -1.804,-0.674 -3.596,-1.393 -5.465,-1.899 l -2.779,-0.832 -2.832,-0.663 c -1.877,-0.49 -3.799,-0.798 -5.72,-1.096 -7.685,-1.108 -15.6,-1.627 -23.185,-0.65 -7.623,0.879 -14.884,3.707 -20.97,7.998 -3.031,2.189 -5.665,4.852 -8.054,7.683 -2.35,2.883 -4.285,6.087 -5.985,9.4 -1.661,3.344 -2.985,6.862 -4.116,10.439 -1.106,3.594 -1.908,7.291 -2.604,11.003 -0.68,3.721 -1.121,7.499 -1.436,11.285 -0.336,3.785 -0.528,7.594 -0.558,11.406 -0.013,3.813 0.051,7.628 0.222,11.425 l 0.175,2.837 c 0.081,1.307 0.098,1.017 0.146,1.172 0.1,0.178 0.252,0.28 0.439,0.321 6.971,2.871 14.294,5.162 21.652,7.017 3.684,0.922 7.395,1.737 11.128,2.353 3.728,0.649 7.469,1.194 11.22,1.51 14.962,1.396 30.177,0.125 43.931,-5.411 6.891,-2.699 13.283,-6.586 19.058,-11.286 l 2.155,-1.783 c 0.715,-0.6 1.365,-1.276 2.053,-1.91 l 2.04,-1.93 1.917,-2.064 1.917,-2.07 c 0.379,-0.422 0.664,-0.856 0.889,-1.338 0.221,-0.478 0.371,-0.982 0.432,-1.499 0.029,-0.166 0.045,-0.767 0.065,-1.196 l 0.038,-1.396 c 0.141,-14.913 -3.575,-30.378 -13,-42.198 M 12.78,26.332 c -0.031,0.586 -0.002,0.823 -0.112,1.941 -0.114,0.928 -0.314,1.85 -0.613,2.743 -1.178,3.583 -3.982,6.618 -7.466,8.093 -7.666,3.221 -15.457,5.872 -23.486,7.835 -8.012,1.981 -16.207,3.375 -24.521,3.898 -8.301,0.606 -16.725,0.27 -25.042,-1.004 -8.317,-1.272 -16.505,-3.726 -24.21,-7.217 -7.721,-3.475 -14.854,-8.216 -21.122,-13.806 l -2.334,-2.116 c -0.771,-0.71 -1.471,-1.492 -2.207,-2.236 l -2.18,-2.258 -2.032,-2.381 -1.648,-1.95 c -6.048,3.668 -13.043,2.234 -17.969,-0.072 l -1.71,2.022 -2.032,2.381 -2.179,2.258 c -0.737,0.744 -1.436,1.526 -2.208,2.236 l -2.334,2.116 c -6.267,5.59 -13.4,10.331 -21.122,13.806 -7.705,3.491 -15.893,5.945 -24.21,7.217 -8.317,1.274 -16.741,1.61 -25.042,1.004 -8.314,-0.523 -16.509,-1.917 -24.52,-3.898 -8.029,-1.963 -15.82,-4.614 -23.486,-7.835 -3.485,-1.475 -6.288,-4.51 -7.466,-8.093 -0.3,-0.893 -0.5,-1.815 -0.613,-2.743 -0.111,-1.118 -0.082,-1.355 -0.113,-1.941 l -0.079,-3.102 c -0.07,-4.127 0.047,-8.245 0.382,-12.352 0.582,-8.214 1.934,-16.402 4.141,-24.41 2.238,-7.992 5.425,-15.814 9.912,-22.94 2.296,-3.53 4.869,-6.884 7.802,-9.923 2.987,-2.984 6.259,-5.681 9.85,-7.873 0.867,-0.589 1.827,-1.033 2.735,-1.553 0.915,-0.51 1.832,-1.012 2.808,-1.394 l 2.875,-1.237 2.961,-0.974 1.479,-0.48 1.511,-0.354 3.01,-0.724 c 2.027,-0.336 4.057,-0.703 6.093,-0.893 4.073,-0.376 8.175,-0.373 12.192,-0.151 4.018,0.183 8.036,0.559 12.024,1.185 7.979,1.188 15.899,3.265 23.371,6.648 3.73,1.703 7.287,3.798 10.702,6.136 3.364,2.416 6.485,5.19 9.327,8.245 5.691,6.125 9.938,13.549 12.802,21.389 2.837,7.874 4.344,16.152 4.576,24.527 l 0.03,1.577 c -0.006,0.553 0.02,0.946 -0.024,1.747 2.673,1.353 7.501,2.999 11.01,-0.194 -0.029,-0.666 -0.012,-1.049 -0.016,-1.553 l 0.029,-1.577 c 0.233,-8.375 1.739,-16.653 4.577,-24.527 2.864,-7.84 7.11,-15.264 12.802,-21.389 2.841,-3.055 5.962,-5.829 9.326,-8.245 3.416,-2.338 6.973,-4.433 10.703,-6.136 7.472,-3.383 15.391,-5.46 23.371,-6.648 3.987,-0.626 8.006,-1.002 12.023,-1.185 4.017,-0.222 8.12,-0.225 12.192,0.151 2.037,0.19 4.066,0.557 6.093,0.893 l 3.01,0.724 1.511,0.354 1.48,0.48 2.961,0.974 2.874,1.237 c 0.976,0.382 1.893,0.884 2.809,1.394 0.907,0.52 1.867,0.964 2.735,1.553 3.59,2.192 6.862,4.889 9.849,7.873 2.933,3.039 5.507,6.393 7.802,9.923 4.487,7.126 7.675,14.948 9.913,22.94 2.207,8.008 3.558,16.196 4.141,24.41 0.335,4.107 0.452,8.225 0.382,12.352 z"
                   style="fill:#b27067;fill-opacity:1;fill-rule:nonzero;stroke:none"
                   id="path258" /></g></g></g></g><g
           id="g266"
           transform="translate(328.2246,284.0211)"><path
             d="M 0,0 C -0.316,-0.812 -0.723,-1.596 -1.234,-2.273 -1.776,-2.996 -2.273,-3.568 -3.102,-4.2 l -0.391,-0.302 -0.632,-0.015 h -0.542 c -0.196,0.015 -0.482,0.031 -0.708,0.076 -0.451,0.06 -0.918,0.18 -1.37,0.361 -0.467,0.181 -0.903,0.436 -1.295,0.753 -0.136,0.105 -0.256,0.241 -0.392,0.361 -0.903,0.045 -1.837,0.045 -2.77,-0.09 -1.159,-0.151 -2.319,-0.391 -3.463,-0.768 -1.129,-0.362 -2.258,-0.798 -3.342,-1.34 -1.069,-0.512 -2.198,-1.159 -3.087,-1.776 l -0.075,-0.061 -0.03,-0.015 c -3.327,-2.062 -7.227,-3.493 -11.307,-3.629 -2.033,-0.075 -4.08,0.242 -6.038,0.829 -1.957,0.602 -3.779,1.461 -5.496,2.8 -1.385,1.069 -2.86,2.153 -4.32,3.056 -0.723,0.452 -1.476,0.858 -2.169,1.16 -0.346,0.151 -0.677,0.24 -0.933,0.301 -0.076,0 -0.181,0.03 -0.181,0.015 -1.776,-0.949 -3.779,-1.641 -5.887,-1.837 -1.054,-0.105 -2.138,-0.06 -3.207,0.091 -0.527,0.075 -1.054,0.21 -1.581,0.361 -0.572,0.181 -0.978,0.301 -1.686,0.692 -0.858,0.588 -1.4,1.13 -1.987,1.823 -0.572,0.662 -1.054,1.459 -1.385,2.318 -0.693,1.747 -0.542,3.824 0.225,5.375 0.407,0.828 0.903,1.566 1.461,2.228 l 3.131,-0.075 c 0,0 -1.61,-9.636 6.008,-6.324 0.858,0.392 4.938,1.325 4.938,1.325 0,0 -1.159,1.521 0.121,4.999 0,0 3.132,-8.251 12.361,-10.961 9.23,-2.695 14.499,1.099 18.263,2.409 3.764,1.295 7.724,2.981 6.58,7.498 0,0 1.551,-1.716 2.288,-4.909 0,0 3.734,1.295 6.384,0 1.672,-0.812 2.816,1.145 2.017,5.105 -0.27,1.43 -0.812,3.117 -1.656,5.044 0.061,-0.031 0.106,-0.075 0.166,-0.121 C -3.899,11.624 -2.8,10.555 -1.896,9.32 -0.964,8.115 -0.195,6.686 0.226,5.089 0.663,3.479 0.617,1.642 0,0"
             style="fill:#b27067;fill-opacity:1;fill-rule:nonzero;stroke:none"
             id="path268" /></g><g
           id="g270"
           transform="translate(276.6421,281.567)"><path
             d="m 0,0 c 0.15,0.091 0.06,0 0,0 m 51.808,7.543 c -0.421,1.597 -1.189,3.026 -2.122,4.231 -0.903,1.235 -2.003,2.304 -3.192,3.237 -0.061,0.046 -0.106,0.091 -0.166,0.121 -2.409,1.806 -5.27,2.529 -7.739,3.553 -1.264,0.557 -2.409,1.325 -3.267,2.424 -0.859,1.099 -1.355,2.454 -1.807,3.794 0.301,-1.385 0.648,-2.8 1.431,-4.05 0.767,-1.249 1.942,-2.258 3.221,-2.981 2.575,-1.415 5.225,-2.379 7.137,-4.276 0.948,-0.918 1.807,-1.957 2.47,-3.117 0.075,-0.12 0.15,-0.255 0.21,-0.391 0.588,-0.993 0.949,-2.078 1.114,-3.102 0.181,-1.174 0,-2.303 -0.496,-3.282 C 48.361,3.223 48.044,2.756 47.653,2.349 47.427,2.093 47.156,1.837 46.885,1.642 c -0.045,0 -0.091,0 -0.15,0.014 -0.181,0.031 -0.361,0.075 -0.513,0.136 -0.15,0.061 -0.27,0.136 -0.39,0.226 -0.046,0.045 -0.091,0.09 -0.136,0.121 -0.016,0.014 -0.03,0.029 -0.045,0.059 -0.016,-0.014 0,-0.014 0.015,-0.045 L 44.235,3.132 C 42.79,3.237 41.344,3.268 39.929,3.057 38.529,2.876 37.144,2.59 35.819,2.153 34.494,1.731 33.199,1.22 31.964,0.617 30.73,0 29.616,-0.617 28.426,-1.43 25.52,-3.236 22.268,-4.396 18.971,-4.502 17.33,-4.577 15.688,-4.306 14.123,-3.839 12.572,-3.372 11.021,-2.619 9.847,-1.687 8.326,-0.496 6.82,0.603 5.164,1.626 4.336,2.139 3.463,2.635 2.469,3.057 1.972,3.268 1.43,3.463 0.783,3.584 0.406,3.629 0.09,3.704 -0.407,3.644 -0.617,3.629 -0.858,3.599 -1.145,3.493 -1.416,3.418 -1.747,3.253 -1.762,3.237 -3.207,2.454 -4.743,1.958 -6.278,1.807 -7.062,1.731 -7.829,1.762 -8.582,1.867 -8.958,1.928 -9.32,2.018 -9.681,2.123 c -0.317,0.075 -0.768,0.272 -0.874,0.316 -0.842,0.467 -1.837,1.371 -2.273,2.259 -0.467,0.918 -0.572,1.942 -0.181,3.056 0.392,1.084 1.114,2.198 2.033,3.192 0.903,0.994 1.942,1.898 3.086,2.696 2.259,1.64 4.894,2.875 7.393,4.426 1.235,0.798 2.439,1.686 3.388,2.846 0.948,1.144 1.521,2.559 1.686,3.989 C 4.261,23.488 3.553,22.208 2.544,21.214 1.551,20.236 0.316,19.513 -0.949,18.881 c -2.559,-1.25 -5.315,-2.183 -7.919,-3.674 -1.31,-0.723 -2.575,-1.596 -3.719,-2.635 -0.542,-0.467 -1.054,-0.978 -1.521,-1.551 -0.557,-0.662 -1.054,-1.4 -1.46,-2.228 -0.768,-1.551 -0.919,-3.628 -0.226,-5.375 0.331,-0.858 0.813,-1.656 1.385,-2.318 0.587,-0.693 1.129,-1.235 1.988,-1.823 0.707,-0.391 1.114,-0.511 1.686,-0.692 0.527,-0.15 1.054,-0.286 1.581,-0.361 1.069,-0.151 2.153,-0.196 3.207,-0.091 2.108,0.196 4.11,0.888 5.886,1.837 0,0.015 0.106,-0.015 0.181,-0.015 0.256,-0.06 0.588,-0.15 0.934,-0.301 0.693,-0.301 1.446,-0.708 2.168,-1.16 1.461,-0.903 2.936,-1.987 4.321,-3.056 1.717,-1.339 3.539,-2.198 5.496,-2.8 1.957,-0.587 4.004,-0.904 6.037,-0.828 4.081,0.135 7.98,1.566 11.307,3.628 l 0.031,0.015 0.075,0.061 c 0.888,0.617 2.017,1.264 3.087,1.776 1.084,0.542 2.213,0.979 3.341,1.34 1.145,0.377 2.304,0.617 3.463,0.768 0.934,0.135 1.868,0.135 2.771,0.09 0.136,-0.12 0.256,-0.256 0.391,-0.361 0.392,-0.316 0.829,-0.572 1.295,-0.753 0.453,-0.181 0.919,-0.301 1.371,-0.361 0.225,-0.045 0.511,-0.061 0.708,-0.076 h 0.542 l 0.631,0.015 0.392,0.302 c 0.828,0.632 1.325,1.204 1.867,1.927 0.512,0.677 0.918,1.461 1.235,2.273 0.617,1.642 0.663,3.479 0.225,5.089"
             style="fill:#7a3131;fill-opacity:1;fill-rule:nonzero;stroke:none"
             id="path272" /></g><g
           id="g274"
           transform="translate(286.0898,297.8658)"><path
             d="M 0,0 C 0,0 -5.646,-1.511 -4.329,-5.084 -3.011,-8.657 4.517,-9.975 0,0"
             style="fill:#efbcb6;fill-opacity:1;fill-rule:nonzero;stroke:none"
             id="path276" /></g><g
           id="g278"><g
             id="g280" /><g
             id="g292"><g
               clip-path="url(#clipPath284)"
               opacity="0.5"
               id="g290"><g
                 transform="translate(325.6953,204.3737)"
                 id="g288"><path
                   d="m 0,0 c 0,0 -0.843,-2.755 -1.415,-6.609 -6.399,-3.057 -33.38,-14.229 -60.406,-0.467 0,1.882 -0.12,3.914 -0.376,6.097 0,0 29.435,-14.8 62.197,0.979"
                   style="fill:#281a18;fill-opacity:1;fill-rule:nonzero;stroke:none"
                   id="path286" /></g></g></g></g><g
           id="g294"><g
             id="g296" /><g
             id="g308"><g
               clip-path="url(#clipPath300)"
               opacity="0.5"
               id="g306"><g
                 transform="translate(365.1123,251.6354)"
                 id="g304"><path
                   d="m 0,0 c -0.029,-0.136 -0.06,-0.271 -0.105,-0.406 l -0.015,0.03 C -0.075,-0.256 -0.045,-0.12 0,0"
                   style="fill:#b27067;fill-opacity:1;fill-rule:nonzero;stroke:none"
                   id="path302" /></g></g></g></g><g
           id="g310"
           transform="translate(187.5688,367.6105)"><path
             d="m 0,0 c 5.017,6.695 11.431,12.361 18.779,16.902 3.722,2.198 7.704,4.122 12.028,5.438 1.081,0.31 2.204,0.513 3.316,0.757 0.56,0.105 1.117,0.229 1.682,0.317 l 1.719,0.14 c 1.152,0.044 2.302,0.195 3.461,0.138 l 3.479,-0.299 c 4.532,-0.707 8.959,-1.966 12.923,-4.067 3.999,-2.002 7.662,-4.542 10.882,-7.467 3.262,-2.879 6.158,-6.081 8.791,-9.429 1.287,-1.701 2.499,-3.453 3.515,-5.334 1.038,-1.857 1.932,-3.819 2.509,-5.91 -3.308,2.758 -6.281,5.524 -9.298,8.221 -2.982,2.719 -6.185,5.137 -9.464,7.31 -6.617,4.247 -13.701,7.397 -20.983,8.412 l -2.694,0.277 c -0.9,0.106 -1.82,0.016 -2.733,0.042 l -1.378,0.034 C 36.073,15.457 35.611,15.397 35.148,15.357 34.222,15.264 33.281,15.257 32.347,15.124 28.585,14.662 24.796,13.638 21.07,12.259 17.35,10.848 13.75,8.99 10.233,6.928 8.46,5.915 6.725,4.815 5.034,3.644 3.31,2.508 1.643,1.285 0,0"
             style="fill:#1c0a07;fill-opacity:1;fill-rule:nonzero;stroke:none"
             id="path312" /></g><g
           id="g314"
           transform="translate(253.5806,231.3043)"><path
             d="M 0,0 C 0,0 29.979,-22.146 62.642,-7.309 62.642,-7.309 32.17,-34.128 0,0"
             style="fill:#db8a7d;fill-opacity:1;fill-rule:nonzero;stroke:none"
             id="path316" /></g><g
           id="g318"
           transform="translate(284.7012,503.8229)"><path
             d="m 0,0 c 0,0 28.085,8.03 28.569,35.131 0.486,27.101 -21.528,16.06 -21.528,16.06 0,0 42.591,24.025 84.246,2.226 0,0 -45.643,2.793 -31.516,-29.221 C 69.189,2.85 78.713,-6.022 78.713,-6.022 78.713,-6.022 54.541,14.82 0,0"
             style="fill:#3f2220;fill-opacity:1;fill-rule:nonzero;stroke:none"
             id="path320" /></g><g
           id="g322"
           transform="translate(432.1943,353.0699)"><path
             d="m 0,0 c -0.315,-3.786 -0.757,-7.564 -1.436,-11.285 -0.697,-3.712 -1.498,-7.409 -2.605,-11.003 -1.13,-3.577 -2.454,-7.095 -4.116,-10.439 -1.699,-3.313 -3.634,-6.517 -5.985,-9.4 -2.388,-2.832 -5.023,-5.494 -8.053,-7.683 -6.086,-4.291 -13.348,-7.119 -20.97,-7.998 -7.586,-0.977 -15.5,-0.458 -23.186,0.65 -1.92,0.298 -3.842,0.606 -5.72,1.096 l -2.831,0.663 -2.78,0.832 c -1.869,0.506 -3.661,1.224 -5.464,1.899 -0.913,0.314 -1.76,0.777 -2.64,1.161 -0.863,0.419 -1.766,0.761 -2.596,1.24 -3.416,1.741 -6.613,3.846 -9.587,6.198 -2.93,2.408 -5.604,5.093 -7.951,8.029 -9.425,11.82 -13.141,27.285 -13,42.198 l 0.038,1.396 c 0.021,0.429 0.036,1.03 0.066,1.196 0.06,0.517 0.21,1.021 0.431,1.499 0.226,0.482 0.51,0.916 0.89,1.338 l 1.917,2.07 1.917,2.064 2.04,1.93 c 0.687,0.634 1.337,1.309 2.053,1.91 l 2.154,1.783 c 5.776,4.699 12.168,8.587 19.059,11.286 13.753,5.536 28.969,6.807 43.93,5.411 3.751,-0.316 7.493,-0.861 11.22,-1.51 3.733,-0.616 7.444,-1.431 11.129,-2.354 7.358,-1.854 14.68,-4.145 21.652,-7.016 0.187,-0.041 0.338,-0.143 0.439,-0.321 0.048,-0.155 0.064,0.135 0.145,-1.172 L 0.336,22.831 C 0.507,19.034 0.57,15.218 0.557,11.406 0.527,7.593 0.335,3.785 0,0 m -160.497,-36.04 c -2.347,-2.936 -5.02,-5.621 -7.951,-8.029 -2.973,-2.352 -6.17,-4.457 -9.587,-6.198 -0.83,-0.479 -1.732,-0.821 -2.595,-1.24 -0.881,-0.384 -1.727,-0.847 -2.64,-1.161 -1.804,-0.675 -3.596,-1.393 -5.465,-1.899 l -2.779,-0.832 -2.832,-0.663 c -1.877,-0.49 -3.799,-0.798 -5.72,-1.096 -7.685,-1.108 -15.6,-1.627 -23.185,-0.65 -7.623,0.879 -14.884,3.707 -20.97,7.998 -3.031,2.189 -5.665,4.851 -8.054,7.683 -2.35,2.883 -4.285,6.087 -5.985,9.4 -1.661,3.344 -2.985,6.862 -4.116,10.439 -1.106,3.594 -1.908,7.291 -2.604,11.003 -0.68,3.721 -1.121,7.499 -1.436,11.285 -0.336,3.785 -0.528,7.593 -0.558,11.406 -0.013,3.812 0.051,7.628 0.222,11.425 l 0.175,2.837 c 0.081,1.307 0.098,1.017 0.146,1.172 0.1,0.178 0.252,0.28 0.439,0.321 6.971,2.871 14.294,5.162 21.652,7.016 3.684,0.923 7.395,1.738 11.128,2.354 3.728,0.649 7.469,1.194 11.22,1.51 14.962,1.396 30.177,0.125 43.931,-5.411 6.891,-2.699 13.283,-6.587 19.058,-11.286 l 2.155,-1.783 c 0.715,-0.601 1.365,-1.276 2.053,-1.91 l 2.04,-1.93 1.917,-2.064 1.917,-2.07 c 0.379,-0.422 0.664,-0.856 0.889,-1.338 0.221,-0.478 0.371,-0.982 0.432,-1.499 0.029,-0.166 0.045,-0.767 0.065,-1.196 l 0.038,-1.396 c 0.141,-14.913 -3.575,-30.378 -13,-42.198 M 12.78,26.332 c -0.031,0.586 -0.002,0.823 -0.112,1.941 -0.114,0.928 -0.314,1.85 -0.613,2.743 -1.178,3.583 -3.982,6.618 -7.466,8.093 -7.666,3.221 -15.457,5.872 -23.486,7.835 -8.012,1.981 -16.207,3.374 -24.521,3.898 -8.301,0.606 -16.725,0.27 -25.042,-1.004 -8.317,-1.272 -16.505,-3.726 -24.21,-7.217 -7.721,-3.475 -14.854,-8.216 -21.122,-13.807 l -2.334,-2.115 c -0.771,-0.71 -1.471,-1.492 -2.207,-2.236 l -2.18,-2.258 -2.032,-2.381 -1.648,-1.95 c -6.048,3.668 -13.043,2.234 -17.969,-0.072 l -1.71,2.022 -2.032,2.381 -2.179,2.258 c -0.737,0.744 -1.436,1.526 -2.208,2.236 l -2.334,2.115 c -6.267,5.591 -13.4,10.332 -21.122,13.807 -7.705,3.491 -15.893,5.945 -24.21,7.217 -8.317,1.274 -16.741,1.61 -25.042,1.004 -8.314,-0.524 -16.509,-1.917 -24.52,-3.898 -8.029,-1.963 -15.82,-4.614 -23.486,-7.835 -3.485,-1.475 -6.288,-4.51 -7.466,-8.093 -0.3,-0.893 -0.5,-1.815 -0.613,-2.743 -0.111,-1.118 -0.082,-1.355 -0.113,-1.941 l -0.079,-3.103 c -0.07,-4.126 0.047,-8.244 0.382,-12.351 0.582,-8.214 1.934,-16.402 4.141,-24.41 2.238,-7.992 5.425,-15.814 9.912,-22.94 2.296,-3.53 4.869,-6.885 7.802,-9.923 2.987,-2.984 6.259,-5.681 9.85,-7.874 0.867,-0.588 1.827,-1.033 2.735,-1.552 0.915,-0.51 1.832,-1.011 2.808,-1.394 l 2.875,-1.236 2.961,-0.976 1.479,-0.479 1.511,-0.355 3.01,-0.723 c 2.027,-0.335 4.057,-0.704 6.093,-0.894 4.073,-0.375 8.175,-0.371 12.192,-0.15 4.018,0.183 8.036,0.558 12.024,1.184 7.979,1.19 15.899,3.266 23.371,6.649 3.73,1.703 7.287,3.798 10.702,6.136 3.364,2.416 6.485,5.19 9.327,8.245 5.691,6.125 9.938,13.549 12.802,21.389 2.837,7.874 4.344,16.152 4.576,24.527 l 0.03,1.577 c -0.006,0.553 0.02,0.946 -0.024,1.747 2.673,1.353 7.501,2.999 11.01,-0.194 -0.029,-0.666 -0.012,-1.05 -0.016,-1.553 l 0.029,-1.577 c 0.233,-8.375 1.739,-16.653 4.577,-24.527 2.864,-7.84 7.11,-15.264 12.802,-21.389 2.841,-3.055 5.962,-5.829 9.326,-8.245 3.416,-2.338 6.973,-4.433 10.703,-6.136 7.472,-3.383 15.391,-5.459 23.371,-6.649 3.987,-0.626 8.006,-1.001 12.023,-1.184 4.017,-0.221 8.12,-0.225 12.192,0.15 2.037,0.19 4.066,0.559 6.093,0.894 l 3.01,0.723 1.511,0.355 1.48,0.479 2.961,0.976 2.874,1.236 c 0.976,0.383 1.893,0.884 2.809,1.394 0.907,0.519 1.867,0.964 2.735,1.552 3.59,2.193 6.862,4.89 9.849,7.874 2.933,3.038 5.507,6.393 7.802,9.923 4.487,7.126 7.675,14.948 9.913,22.94 2.207,8.008 3.558,16.196 4.141,24.41 0.335,4.107 0.452,8.225 0.382,12.351 z"
             style="fill:#1c0a07;fill-opacity:1;fill-rule:nonzero;stroke:none"
             id="path324" /></g><g
           id="g326"
           transform="translate(297.6431,28.5367)"><path
             d="m 0,0 c 0,-5.776 -4.683,-10.46 -10.459,-10.46 -5.777,0 -10.459,4.684 -10.459,10.46 0,5.776 4.682,10.459 10.459,10.459 C -4.683,10.459 0,5.776 0,0"
             style="fill:#d1d1d1;fill-opacity:1;fill-rule:nonzero;stroke:none"
             id="path328" /></g><g
           id="g330"
           transform="translate(295.8516,29.7916)"><path
             d="m 0,0 c 0,-5.777 -4.683,-10.46 -10.459,-10.46 -5.777,0 -10.459,4.683 -10.459,10.46 0,5.776 4.682,10.459 10.459,10.459 C -4.683,10.459 0,5.776 0,0"
             style="fill:#eeeced;fill-opacity:1;fill-rule:nonzero;stroke:none"
             id="path332" /></g><g
           id="g334"
           transform="translate(296.1631,71.9274)"><path
             d="m 0,0 c 1.297,-2.061 2.508,-4.156 3.757,-6.234 l 3.68,-6.272 7.378,-12.552 0.072,-0.12 0.011,-0.034 c 0.51,-1.401 0.718,-2.818 0.708,-4.227 -0.002,-0.417 -0.341,-0.753 -0.758,-0.75 -0.377,0.002 -0.689,0.281 -0.743,0.643 l -0.001,0.012 c -0.185,1.247 -0.487,2.487 -1.014,3.547 l 0.083,-0.154 c -1.44,1.993 -2.789,4.025 -4.141,6.066 -1.307,2.066 -2.591,4.148 -3.852,6.245 -1.252,2.102 -2.432,4.251 -3.537,6.439 -1.088,2.198 -2.13,4.423 -2.995,6.729 -0.147,0.391 0.051,0.827 0.442,0.974 C -0.567,0.439 -0.187,0.298 0,0"
             style="fill:#afafaf;fill-opacity:1;fill-rule:nonzero;stroke:none"
             id="path336" /></g><g
           id="g338"
           transform="translate(165.2104,71.5621)"><path
             d="M 0,0 C -0.512,-1.189 -14.168,-33.53 -18.609,-71.563 H -38.228 C -32.28,-53.179 -20.567,-24.512 0,0"
             style="fill:#c4c4c4;fill-opacity:1;fill-rule:nonzero;stroke:none"
             id="path340" /></g><g
           id="g342"
           transform="translate(463.0986,-4e-4)"><path
             d="M 0,0 H -19.618 C -24.06,38.032 -37.716,70.373 -38.228,71.563 -17.661,47.051 -5.947,18.384 0,0"
             style="fill:#c4c4c4;fill-opacity:1;fill-rule:nonzero;stroke:none"
             id="path344" /></g></g></g></g></svg>
