<svg width="402" height="412" viewBox="0 0 402 412" fill="none" xmlns="http://www.w3.org/2000/svg">
<path fill-rule="evenodd" clip-rule="evenodd" d="M188.513 3.73203C232.936 11.0888 265.372 45.6656 298.689 75.9015C328.25 102.729 353.707 131.988 369.973 168.411C387.95 208.667 413.411 254.006 396.388 294.674C379.437 335.171 326.799 343.236 288.085 364.049C255.521 381.554 225.121 401.151 188.513 406.425C146.802 412.433 101.237 418.569 65.6137 396.095C29.2019 373.124 7.85563 330.526 0.939147 288.09C-5.43419 248.987 22.4554 214.708 29.7016 175.756C38.61 127.869 15.0645 70.225 48.1316 34.4068C81.4058 -1.63572 140.071 -4.29032 188.513 3.73203Z" fill="#E0E7FC"/>
</svg>
