<svg width="390" height="370" viewBox="0 0 390 370" fill="none" xmlns="http://www.w3.org/2000/svg">
<path fill-rule="evenodd" clip-rule="evenodd" d="M373.695 305.898C350.464 339.926 302.829 342.618 263.415 354.556C231.771 364.14 200.693 369.037 167.647 368.305C129.57 367.462 84.0457 377.508 57.7072 350C31.3482 322.471 53.0331 276.295 44.0634 239.235C33.9564 197.476 -7.41302 162.568 2.20439 120.679C12.1948 77.1655 53.5073 47.6349 92.88 26.6109C132.543 5.43184 178.227 -5.52249 222.322 3.14233C265.281 11.5838 300.677 40.2944 329.636 73.1335C356.959 104.118 373.017 142.14 380.704 182.749C388.541 224.153 397.462 271.084 373.695 305.898Z" fill="#E1D3F1"/>
</svg>
